<?xml version="1.0" standalone="no"?>
<!DOCTYPE svg PUBLIC "-//W3C//DTD SVG 20010904//EN"
 "http://www.w3.org/TR/2001/REC-SVG-20010904/DTD/svg10.dtd">
<svg version="1.0" xmlns="http://www.w3.org/2000/svg"
 width="1419.000000pt" height="1602.000000pt" viewBox="0 0 1419.000000 1602.000000"
 preserveAspectRatio="xMidYMid meet">

<g transform="translate(0.000000,1602.000000) scale(0.100000,-0.100000)"
fill="#000000" stroke="none">
<path d="M6275 16010 c-73 -11 -195 -39 -216 -50 -10 -6 -30 -10 -45 -10 -15
0 -57 -9 -93 -21 -36 -11 -91 -27 -121 -36 -30 -9 -66 -20 -80 -26 -14 -5 -38
-13 -55 -18 -41 -10 -113 -37 -152 -54 -17 -8 -37 -15 -45 -15 -8 0 -23 -7
-34 -15 -10 -8 -25 -15 -32 -15 -15 0 -351 -159 -402 -190 -8 -5 -55 -33 -105
-61 -144 -83 -349 -221 -462 -311 -37 -29 -77 -60 -90 -68 -23 -17 -172 -151
-287 -260 -120 -114 -349 -376 -463 -529 -67 -90 -207 -299 -262 -391 -29 -47
-56 -92 -61 -100 -75 -122 -252 -477 -309 -620 -24 -60 -29 -72 -59 -140 -36
-83 -80 -203 -139 -385 -14 -44 -32 -94 -39 -112 -8 -17 -14 -37 -14 -44 0 -7
-6 -31 -14 -54 -17 -49 -52 -180 -100 -372 -8 -32 -22 -94 -30 -138 -9 -44
-23 -114 -32 -155 -8 -41 -19 -102 -24 -135 -4 -33 -13 -87 -19 -120 -15 -80
-41 -293 -41 -333 0 -38 -22 -52 -54 -32 -11 7 -59 34 -106 58 -47 25 -107 58
-135 74 -27 16 -64 35 -82 43 -17 8 -34 19 -38 25 -3 5 -14 10 -23 10 -9 0
-28 9 -42 20 -14 11 -33 20 -42 20 -10 0 -18 4 -18 10 0 5 -11 12 -25 16 -14
3 -25 10 -25 14 0 11 -81 50 -103 50 -9 0 -17 4 -17 9 0 5 -13 12 -29 16 -16
3 -37 15 -47 26 -9 10 -26 19 -36 19 -10 0 -21 7 -24 15 -4 8 -14 15 -24 15
-11 0 -22 4 -25 10 -7 11 -66 40 -89 44 -8 1 -29 14 -47 29 -18 15 -38 27 -45
27 -7 0 -14 3 -16 8 -4 10 -107 60 -140 68 -15 3 -32 12 -39 20 -6 8 -29 19
-50 24 -22 6 -39 15 -39 20 0 6 -8 10 -17 10 -10 0 -38 11 -62 25 -23 14 -49
25 -56 25 -7 0 -23 8 -36 19 -13 10 -37 21 -54 25 -88 21 -99 24 -87 25 7 0
10 6 7 11 -3 6 -27 9 -53 9 -34 -2 -39 -3 -17 -6 17 -3 34 -9 40 -14 6 -6 -26
-8 -82 -7 -51 1 -90 5 -87 10 3 4 22 8 42 9 36 1 36 1 9 9 -49 15 -126 -7 -84
-23 9 -4 8 -8 -3 -16 -19 -14 -53 -14 -45 -1 4 6 -5 10 -19 10 -14 0 -26 -4
-26 -10 0 -5 -11 -12 -25 -16 -14 -3 -25 -9 -25 -13 0 -4 -15 -15 -32 -25 -53
-30 -166 -146 -213 -218 -24 -37 -68 -111 -97 -165 l-53 -98 0 -260 c0 -197 4
-289 18 -380 32 -214 79 -450 132 -657 49 -191 70 -265 115 -408 15 -47 38
-119 50 -160 12 -41 28 -91 36 -110 7 -19 29 -82 49 -140 20 -58 43 -120 51
-138 8 -18 14 -37 14 -43 0 -6 6 -25 14 -42 7 -18 23 -59 35 -92 13 -33 29
-77 37 -97 8 -21 21 -57 30 -80 9 -24 24 -63 34 -88 45 -111 92 -227 100 -245
5 -11 28 -65 50 -120 23 -55 55 -128 71 -163 16 -34 29 -66 29 -71 0 -5 14
-36 30 -69 17 -34 30 -63 30 -66 0 -3 25 -58 55 -121 30 -64 55 -118 55 -121
0 -6 56 -126 195 -419 130 -274 392 -793 505 -1000 76 -140 101 -179 376 -594
115 -173 234 -352 265 -399 69 -103 30 -46 335 -492 142 -206 287 -417 323
-467 36 -51 86 -122 111 -158 25 -36 63 -90 85 -120 22 -30 59 -83 83 -118 24
-34 104 -147 179 -252 75 -104 152 -212 171 -240 137 -195 823 -1101 922
-1219 14 -16 39 -46 55 -65 17 -20 36 -47 42 -61 19 -44 408 -519 526 -641 62
-64 134 -143 161 -175 141 -169 334 -380 543 -594 94 -96 183 -190 198 -207
15 -18 33 -33 40 -33 7 0 71 -57 142 -127 142 -141 321 -270 468 -337 44 -21
98 -46 120 -57 31 -15 61 -19 138 -19 53 0 97 4 97 9 0 5 15 14 33 21 140 53
246 113 411 233 226 164 493 410 815 752 251 268 408 438 476 515 27 30 54 60
61 65 25 21 447 525 529 633 17 22 100 127 186 233 148 184 526 676 561 729 9
14 34 44 55 67 21 23 86 106 144 185 58 79 135 181 169 228 35 47 78 105 95
130 18 25 99 138 181 252 181 251 295 413 423 598 36 52 96 140 134 195 38 55
170 253 294 440 238 359 243 367 318 485 26 41 62 98 80 125 17 28 44 70 59
95 37 63 45 76 92 150 55 87 244 409 255 435 5 11 20 38 32 60 34 59 95 169
139 255 44 84 54 102 68 128 5 9 27 55 50 102 22 47 44 92 50 100 12 20 89
176 106 217 8 18 21 48 28 65 8 18 27 61 41 96 42 102 91 204 119 245 14 20
35 59 47 85 11 26 31 70 44 97 13 28 44 100 69 160 55 129 64 150 82 190 7 17
23 55 34 85 11 30 27 69 34 85 8 17 24 55 36 85 13 30 26 64 31 75 27 67 64
164 99 260 12 33 26 71 32 85 6 14 14 36 19 50 4 14 33 97 64 185 31 88 62
180 70 205 7 25 41 137 75 250 65 217 79 266 105 370 9 36 22 88 30 115 7 28
16 66 20 85 3 19 12 62 20 95 32 138 55 277 76 455 6 52 19 123 30 158 26 86
26 242 0 309 -10 26 -22 73 -25 103 -18 144 -86 313 -162 403 -54 65 -172 147
-210 147 -8 0 -27 6 -43 14 -68 35 -430 37 -470 2 -9 -7 -106 -59 -216 -116
-110 -56 -204 -106 -210 -110 -11 -8 -260 -138 -410 -214 -55 -28 -102 -53
-105 -57 -3 -3 -25 -16 -50 -28 -60 -32 -232 -122 -355 -187 -178 -94 -187
-98 -194 -86 -4 6 -15 67 -24 134 -27 187 -107 612 -138 733 -5 22 -27 110
-48 195 -22 85 -56 211 -76 280 -21 69 -44 145 -51 170 -7 25 -35 108 -63 185
-27 77 -57 160 -66 185 -8 25 -23 63 -31 85 -9 22 -20 49 -24 60 -11 28 -48
114 -65 150 -8 17 -28 62 -45 100 -38 84 -149 306 -178 355 -12 19 -35 62 -52
95 -17 33 -40 74 -50 90 -11 17 -24 39 -30 50 -32 63 -206 311 -298 425 -101
125 -266 296 -427 441 -92 84 -418 330 -465 352 -8 4 -27 15 -42 25 -56 36
-170 102 -178 102 -5 0 -15 6 -22 13 -7 7 -58 35 -113 61 -55 27 -104 52 -110
55 -5 2 -4 -3 4 -12 7 -9 20 -17 27 -17 8 0 14 -3 14 -8 0 -4 27 -22 60 -40
33 -19 60 -38 60 -43 0 -13 -21 -11 -39 5 -17 15 -234 126 -341 174 -136 62
-329 142 -342 142 -7 0 -26 7 -43 16 -28 14 -109 43 -305 108 -156 51 -300 81
-486 101 -72 8 -151 19 -175 24 -24 5 -168 13 -319 17 -281 7 -475 -2 -685
-31 -55 -7 -140 -19 -190 -25 -49 -7 -142 -25 -205 -42 -63 -17 -133 -33 -155
-37 -22 -4 -50 -13 -63 -20 -12 -6 -37 -13 -55 -15 -17 -2 -77 -20 -131 -40
-55 -20 -102 -34 -104 -31 -3 2 -14 -2 -26 -10 -11 -8 -32 -15 -46 -14 l-25 0
25 10 c14 6 43 19 65 29 46 21 167 60 189 60 8 0 28 7 45 15 17 8 45 22 62 30
17 8 40 15 52 15 12 0 39 6 62 14 22 8 94 24 160 35 66 12 142 26 170 33 27 6
88 17 135 23 l85 13 -130 -1 c-71 0 -152 -3 -180 -7z m-930 -360 c-3 -5 -14
-10 -23 -10 -15 0 -15 2 -2 10 20 13 33 13 25 0z m3995 -272 c0 -13 -23 -5
-28 10 -2 7 2 10 12 6 9 -3 16 -11 16 -16z m-1830 -212 c52 -8 127 -20 165
-27 175 -28 495 -121 671 -195 358 -149 673 -332 934 -543 140 -113 504 -479
601 -605 246 -318 371 -513 498 -777 180 -374 294 -739 365 -1164 29 -169 36
-320 37 -800 1 -264 4 -652 8 -862 6 -379 6 -383 28 -405 22 -21 23 -21 36 -4
7 10 29 24 48 31 75 28 136 53 184 75 28 12 74 34 104 47 100 46 131 54 137
38 4 -8 4 -21 1 -28 -3 -8 -1 -20 4 -28 6 -10 9 -2 9 24 0 21 9 55 19 76 17
33 32 43 108 76 48 21 144 64 212 96 67 33 125 59 127 59 6 0 352 173 419 210
33 18 112 59 175 92 120 63 216 114 335 178 121 66 157 85 253 138 133 73 195
95 218 77 16 -11 17 -17 7 -47 -14 -38 -78 -292 -123 -483 -17 -71 -37 -152
-45 -180 -7 -27 -30 -111 -50 -185 -101 -371 -267 -852 -430 -1250 -27 -63
-57 -137 -67 -165 -104 -266 -410 -905 -621 -1295 -123 -226 -140 -257 -176
-318 -17 -29 -31 -55 -31 -59 0 -5 -253 -434 -420 -711 -36 -59 -111 -177
-167 -262 -57 -85 -159 -240 -227 -345 -155 -237 -304 -454 -375 -548 -30 -40
-93 -128 -139 -197 -137 -201 -219 -314 -469 -640 -40 -52 -97 -125 -125 -161
-29 -37 -93 -118 -143 -181 -49 -64 -169 -216 -265 -339 -96 -123 -280 -350
-408 -504 -215 -259 -287 -346 -446 -539 -32 -39 -67 -82 -78 -95 -11 -13 -36
-44 -55 -69 -19 -26 -54 -69 -78 -97 -24 -27 -61 -74 -82 -102 -22 -29 -57
-72 -79 -95 -410 -446 -569 -621 -619 -679 -229 -265 -384 -429 -405 -429 -24
0 -50 26 -371 375 -487 529 -712 783 -964 1090 -99 120 -198 240 -220 265 -22
25 -61 73 -87 106 -25 32 -87 111 -138 174 -50 63 -110 140 -133 170 -23 30
-76 96 -117 145 -42 50 -125 152 -185 228 -61 76 -134 169 -164 205 -51 64
-352 465 -669 892 -80 107 -158 212 -174 232 -15 20 -28 40 -28 44 0 4 -8 17
-19 28 -10 12 -85 120 -166 241 -82 121 -182 270 -224 330 -226 332 -467 704
-490 758 -3 8 -161 272 -336 564 -129 214 -137 227 -200 335 -65 112 -90 159
-142 258 -198 380 -254 491 -329 650 -47 102 -92 199 -99 215 -8 17 -23 53
-35 80 -12 28 -55 131 -95 230 -40 99 -103 250 -140 335 -147 340 -250 618
-311 845 -8 28 -20 68 -28 90 -7 22 -21 69 -31 105 -10 36 -23 85 -31 110 -20
68 -80 311 -108 440 -14 63 -39 176 -56 250 -33 144 -35 187 -9 203 17 10 63
-14 389 -204 191 -111 490 -274 672 -366 415 -209 596 -296 680 -328 29 -11
58 -31 73 -51 14 -19 34 -34 45 -34 10 0 31 -6 47 -14 15 -8 53 -25 83 -37 30
-13 58 -27 61 -32 3 -4 26 -14 50 -22 142 -44 249 -96 249 -123 0 -7 -6 -21
-12 -32 -10 -15 -10 -22 0 -32 6 -6 12 -28 12 -47 0 -63 11 -25 16 54 2 43 8
83 13 89 5 6 12 327 16 741 8 993 18 1199 71 1485 39 208 128 500 236 770 48
122 190 406 245 492 15 24 36 59 46 78 36 66 212 324 300 440 80 104 280 317
433 460 335 313 720 556 1124 710 296 112 496 165 785 205 61 8 124 17 140 19
17 2 170 3 340 1 220 -2 338 -8 405 -19z"/>
<path d="M5610 12519 c-118 -12 -265 -58 -332 -102 -18 -13 -53 -34 -78 -49
-134 -78 -285 -266 -353 -438 -150 -381 -44 -805 266 -1069 144 -123 309 -190
516 -211 121 -13 221 -2 341 36 83 26 206 83 264 123 95 64 217 215 287 354
79 156 109 266 109 407 0 411 -284 798 -675 920 -98 31 -227 42 -345 29z"/>
<path d="M8360 12519 c-85 -9 -189 -34 -204 -49 -5 -5 -17 -10 -27 -10 -19 0
-116 -50 -178 -93 -68 -46 -185 -168 -233 -244 -110 -170 -159 -349 -159 -569
1 -156 10 -210 55 -320 87 -213 266 -401 476 -500 275 -130 565 -124 830 18
288 155 470 466 470 803 -1 375 -215 726 -547 894 -117 59 -317 88 -483 70z"/>
<path d="M2823 9919 c4 -13 7 -107 7 -208 0 -101 2 -182 5 -180 2 3 5 95 5
204 1 150 -1 200 -11 204 -8 2 -10 -4 -6 -20z"/>
<path d="M11333 9845 c0 -27 2 -38 4 -22 2 15 2 37 0 50 -2 12 -4 0 -4 -28z"/>
<path d="M10837 9733 c-11 -10 -8 -201 3 -208 6 -4 10 33 10 104 0 111 -1 117
-13 104z"/>
<path d="M8975 15590 c3 -5 8 -10 11 -10 2 0 4 5 4 10 0 6 -5 10 -11 10 -5 0
-7 -4 -4 -10z"/>
<path d="M9036 15556 c21 -15 30 -14 19 3 -3 6 -14 11 -23 11 -13 0 -13 -2 4
-14z"/>
</g>
</svg>
